<?xml version="1.0" encoding="UTF-8"?>
<svg version="1.1" viewBox="0 0 1080 1080" width="1080" height="1080" xmlns="http://www.w3.org/2000/svg">
<path transform="translate(0)" d="m0 0h1080v1080h-1080z" fill="#FEFEFE"/>
<path transform="translate(435,70)" d="m0 0h210l11 4 8 5 8 8 6 13 1 4v420l-4 12-8 11-10 7-12 4h-210l-12-4-11-8-7-10-4-12v-420l4-11 5-8 8-8 13-6z" fill="#FEFEFE"/>
<path transform="translate(607,646)" d="m0 0 50 1 10 3 10 6 5 5 4-5 9-6 9-3 5-1h56l16 4 8 6 4 5 2 4 7 3 7 6 7 14 1 11-2 8-4 8-10 13-8 11-9 12-9 13-6 9-10 13-10 15-10 14 1 7 6 19 10 30 12 37 9 29 5 19v23l-5 10-4 5-11 8-5 2-6 1h-65l-12-3-8-6-5-6-4-4-3-1-6 9-5 4-8 4-6 2-25 1h-31l-10-3-9-6-11-11-8-6-7-8-3-9v-16l3-18 2-14 4-26 5-23 4-25 3-13 3-21 5-28 3-19 4-23 3-22 6-39 4-11 5-7 10-7 10-3z" fill="#040404"/>
<path transform="translate(395,628)" d="m0 0h35l22 3 20 7 11 6 14 13 11 6 7 7 7 14 4 16 1 8v40l-2 21-6 18-5 8-1 3 4 8 1 5v21l-4 30-7 40-6 23-8 21-8 15-8 10-11 12-10 7-14 7-26 7-6 1-22 1-27-3-18-5-11-7-7-7-3-5-10-6-11-8-9-10-6-9-5-8-7-22-2-12v-20l3-40 4-25 3-18 3-14 3-19 3-11 3-15 5-17 6-16 5-15 12-25 8-11 9-9 11-7 19-9 18-4z" fill="#040404"/>
<path transform="translate(396,659)" d="m0 0h32l19 3 17 7 5 4v2l4 2 4 8 2 6v44l-3 21-3 5-4 2h-38l-7-2-1-1 1-17 1-4v-21l-4-6-2-1h-14l-6 4-5 10-6 14-6 26-4 14-5 26-4 20-3 22-2 22v19l3 6v2l11 3h13l7-4 4-6 5-15 2-7 2-18-2-1-11-1-2-2v-8l5-30 3-8 1-1h60l4 2v15l-3 23-3 19-3 15-2 11-2 6-2 10-4 12-6 15-7 10-5 6-11 7-10 4-20 4-19 1-19-2-18-5-10-7-6-5-8-12-3-7-5-19v-14l2-25 2-18 2-17 1-3 1-11 5-22 2-13 5-23 4-15 5-14 7-20 7-16 6-10 8-8 16-8 9-3z" fill="#3D5AFE"/>
<path transform="translate(749,676)" d="m0 0 18 1 1 5-6 10-8 10-4 7-8 12-4 5-6 9-13 18-7 10-12 17-14 21-2 4v8l9 31 4 11 6 20 5 13 2 3 2 8 3 10 2 3 4 16 3 10 4 9 2 5v6l-2 1h-56l-4-3-22-66-3-12-11-33-2-3-3 19-3 20-1 3-1 13-2 7-3 18-4 19-1 2-2 13-3 2-8 1h-41l-3-3 2-19 3-19 3-20 6-29 4-24 3-14 3-20 5-28 3-20 3-17 4-28 3-16 2-17 2-6 3-2h48l5 3v9l-4 28-7 39-2 9 4-2 5-8 7-9 4-5 7-11 9-12 8-13 10-14 6-8 4-6z" fill="#3D5AFE"/>
<path transform="translate(435,70)" d="m0 0h210l11 4 8 5 8 8 6 13 1 4v420l-4 12-8 11-10 7-12 4h-210l-12-4-11-8-7-10-4-12v-420l4-11 5-8 8-8 13-6zm3 14-11 4-5 4-5 8-2 6v417l5 10 5 5 8 5 4 1h206l10-4 5-5 4-5 3-7v-417l-4-10-5-5-5-4-9-3z" fill="#040404"/>
<path transform="translate(779,692)" d="m0 0 7 2-1 5-9 12-7 10-10 13-6 8-7 11-14 19-8 12-9 12-7 12-1 8 4 15 12 36 11 35 4 11 6 20 7 23 1 4v11l-4 4h-58l-3-1-1-7 1-1 54-1-1-7-7-21-3-8-6-20-6-18-5-17-8-22-8-25-3-11v-9l7-11 8-12 14-20 16-22 6-9 8-10 6-10 12-16 5-4z" fill="#3D5AFE"/>
<path transform="translate(477,814)" d="m0 0h6l4 3v12l-3 25-8 44-6 21-7 18-7 11-11 12-11 7-22 6-6 1h-27l-13-2-13-4-1-4 14 1h21l15-2 15-3 12-5 8-5 9-9 5-9 4-8 5-14 2-9 4-16 2-12 3-16 2-16 2-11 1-15z" fill="#3D5AFE"/>
<path transform="translate(428,145)" d="m0 0h224l3 2v5l-4 3h-222l-4-3 1-6z" fill="#040404"/>
<path transform="translate(427,450)" d="m0 0h226l2 2v5l-3 2h-224l-3-2v-5z" fill="#040404"/>
<path transform="translate(412,717)" d="m0 0 6 1 2 3-1 5-4 2-4 8-9 33-4 13-3 14-3 13-3 17-3 14-1 13-2 12-1 9v12l1 5-1 1h-5l-4-5-2-9v-9l3-21 1-14 4-21 2-13 2-4 3-15 6-22 2-8 6-17 6-12z" fill="#3D5AFE"/>
<path transform="translate(633,879)" d="m0 0 2 1 4 16-1 17-4 23-3 19-4 16-3 3-40 1-9-1-2-2 1-4 3-2 37-1 3-3 3-15 6-32 2-9 2-16 2-10z" fill="#3D5AFE"/>
<path transform="translate(487,688)" d="m0 0 3 1 4 10 2 10v37l-2 19-4 10-3 3-5 1h-36l-5-3 1-5 2-1 34-1 4-1 2-10 2-25v-44z" fill="#3D5AFE"/>
<path transform="translate(533,473)" d="m0 0h12l8 3 9 8 4 8 1 11-3 10-6 8-6 4h-5l-2-4 2-4 6-4 3-5 1-4v-7l-3-8-5-4-4-2h-12l-7 4-4 6-1 10 1 9-2 2-6-1-2-5-1-8 3-12 4-6 7-6z" fill="#040404"/>
<path transform="translate(514,113)" d="m0 0h50l4 4-2 5-2 1h-50l-3-2v-6z" fill="#040404"/>
<path transform="translate(665,693)" d="m0 0 7 1 2 5-2 16-4 8-7 9-3-1 4-29z" fill="#3D5AFE"/>
<path transform="translate(498,113)" d="m0 0 4 1 1 6-3 3-5-2-1-5z" fill="#040404"/>
</svg>
